<mxfile host="app.diagrams.net" agent="Mozilla/5.0 (Windows NT 10.0; Win64; x64) AppleWebKit/537.36 (KHTML, like Gecko) Chrome/134.0.0.0 Safari/537.36" version="26.1.1">
  <diagram name="Page-1" id="UYk_7OX0EDJJeDHEVzLT">
    <mxGraphModel dx="1035" dy="643" grid="1" gridSize="10" guides="1" tooltips="1" connect="1" arrows="1" fold="1" page="1" pageScale="1" pageWidth="850" pageHeight="1100" math="0" shadow="0">
      <root>
        <mxCell id="0" />
        <mxCell id="1" parent="0" />
        <mxCell id="oUaAyh6fzebVkO_aCxSh-33" value="Administrador" style="swimlane;childLayout=stackLayout;horizontal=1;startSize=50;horizontalStack=0;rounded=1;fontSize=14;fontStyle=0;strokeWidth=2;resizeParent=0;resizeLast=1;shadow=0;dashed=0;align=center;arcSize=4;whiteSpace=wrap;html=1;" vertex="1" parent="1">
          <mxGeometry x="210" y="140" width="160" height="90" as="geometry" />
        </mxCell>
        <mxCell id="oUaAyh6fzebVkO_aCxSh-34" value="&lt;b&gt;+ID&lt;/b&gt;&lt;div&gt;+Nombre&lt;/div&gt;" style="align=left;strokeColor=none;fillColor=none;spacingLeft=4;spacingRight=4;fontSize=12;verticalAlign=top;resizable=0;rotatable=0;part=1;html=1;whiteSpace=wrap;" vertex="1" parent="oUaAyh6fzebVkO_aCxSh-33">
          <mxGeometry y="50" width="160" height="40" as="geometry" />
        </mxCell>
        <mxCell id="oUaAyh6fzebVkO_aCxSh-42" style="edgeStyle=orthogonalEdgeStyle;rounded=0;orthogonalLoop=1;jettySize=auto;html=1;exitX=0.5;exitY=1;exitDx=0;exitDy=0;" edge="1" parent="oUaAyh6fzebVkO_aCxSh-33" source="oUaAyh6fzebVkO_aCxSh-34" target="oUaAyh6fzebVkO_aCxSh-34">
          <mxGeometry relative="1" as="geometry" />
        </mxCell>
        <mxCell id="oUaAyh6fzebVkO_aCxSh-35" value="User" style="swimlane;childLayout=stackLayout;horizontal=1;startSize=50;horizontalStack=0;rounded=1;fontSize=14;fontStyle=0;strokeWidth=2;resizeParent=0;resizeLast=1;shadow=0;dashed=0;align=center;arcSize=4;whiteSpace=wrap;html=1;" vertex="1" parent="1">
          <mxGeometry x="480" y="140" width="160" height="280" as="geometry" />
        </mxCell>
        <mxCell id="oUaAyh6fzebVkO_aCxSh-36" value="&lt;div&gt;&lt;span style=&quot;font-family: Arial, sans-serif; white-space-collapse: preserve;&quot;&gt;&lt;b style=&quot;&quot;&gt;&lt;font&gt;+ID&lt;/font&gt;&lt;/b&gt;&lt;/span&gt;&lt;/div&gt;&lt;font&gt;+&lt;span id=&quot;docs-internal-guid-080f4050-7fff-7165-0a26-d0c95ce411ea&quot;&gt;&lt;span style=&quot;background-color: transparent; white-space-collapse: preserve; font-family: Arial, sans-serif; color: light-dark(rgb(0, 0, 0), rgb(255, 255, 255));&quot;&gt;&lt;font style=&quot;&quot;&gt;Nombre/Apellido&lt;/font&gt;&lt;/span&gt;&lt;/span&gt;&lt;/font&gt;&lt;div&gt;&lt;div&gt;&lt;font&gt;&lt;span&gt;&lt;span style=&quot;background-color: transparent; white-space-collapse: preserve; font-family: Arial, sans-serif; color: light-dark(rgb(0, 0, 0), rgb(255, 255, 255));&quot;&gt;+Contraseña&lt;/span&gt;&lt;/span&gt;&lt;/font&gt;&lt;/div&gt;&lt;div&gt;&lt;font&gt;&lt;span style=&quot;background-color: transparent; white-space-collapse: preserve; font-family: Arial, sans-serif; color: light-dark(rgb(0, 0, 0), rgb(255, 255, 255));&quot;&gt;+Email&lt;/span&gt;&lt;/font&gt;&lt;/div&gt;&lt;div&gt;&lt;font&gt;&lt;span style=&quot;background-color: transparent; color: light-dark(rgb(0, 0, 0), rgb(255, 255, 255));&quot;&gt;+T&lt;/span&gt;&lt;span style=&quot;background-color: transparent; white-space-collapse: preserve; font-family: Arial, sans-serif; color: light-dark(rgb(0, 0, 0), rgb(255, 255, 255));&quot;&gt;elefono&lt;/span&gt;&lt;/font&gt;&lt;/div&gt;&lt;div&gt;&lt;font&gt;&lt;span style=&quot;background-color: transparent; white-space-collapse: preserve; font-family: Arial, sans-serif; color: light-dark(rgb(0, 0, 0), rgb(255, 255, 255));&quot;&gt;+Edad&lt;/span&gt;&lt;/font&gt;&lt;/div&gt;&lt;div&gt;&lt;font&gt;&lt;span style=&quot;background-color: transparent; white-space-collapse: preserve; font-family: Arial, sans-serif; color: light-dark(rgb(0, 0, 0), rgb(255, 255, 255));&quot;&gt;+Altura&lt;/span&gt;&lt;/font&gt;&lt;/div&gt;&lt;div&gt;&lt;font&gt;&lt;span style=&quot;background-color: transparent; white-space-collapse: preserve; font-family: Arial, sans-serif; color: light-dark(rgb(0, 0, 0), rgb(255, 255, 255));&quot;&gt;+Peso&lt;/span&gt;&lt;/font&gt;&lt;/div&gt;&lt;div&gt;&lt;font&gt;&lt;span style=&quot;background-color: transparent; white-space-collapse: preserve; font-family: Arial, sans-serif; color: light-dark(rgb(0, 0, 0), rgb(255, 255, 255));&quot;&gt;+Sexo&lt;/span&gt;&lt;/font&gt;&lt;/div&gt;&lt;div&gt;&lt;font&gt;&lt;span style=&quot;background-color: transparent; white-space-collapse: preserve; font-family: Arial, sans-serif; color: light-dark(rgb(0, 0, 0), rgb(255, 255, 255));&quot;&gt;+Foto de perfil&lt;/span&gt;&lt;/font&gt;&lt;/div&gt;&lt;div&gt;&lt;font&gt;&lt;span style=&quot;background-color: transparent; white-space-collapse: preserve; font-family: Arial, sans-serif; color: light-dark(rgb(0, 0, 0), rgb(255, 255, 255));&quot;&gt;+Público/Privado&lt;/span&gt;&lt;/font&gt;&lt;/div&gt;&lt;div&gt;&lt;font&gt;&lt;span style=&quot;background-color: transparent; white-space-collapse: preserve; font-family: Arial, sans-serif; color: light-dark(rgb(0, 0, 0), rgb(255, 255, 255));&quot;&gt;+Direccion&lt;/span&gt;&lt;br&gt;&lt;/font&gt;&lt;/div&gt;&lt;/div&gt;&lt;div&gt;&lt;font&gt;&lt;span style=&quot;background-color: transparent; white-space-collapse: preserve; font-family: Arial, sans-serif; color: light-dark(rgb(0, 0, 0), rgb(255, 255, 255));&quot;&gt;+Monedas&lt;/span&gt;&lt;/font&gt;&lt;/div&gt;&lt;div&gt;&lt;font&gt;&lt;span style=&quot;background-color: transparent; white-space-collapse: preserve; font-family: Arial, sans-serif; color: light-dark(rgb(0, 0, 0), rgb(255, 255, 255));&quot;&gt;+XP Fitness&lt;/span&gt;&lt;/font&gt;&lt;/div&gt;&lt;div&gt;&lt;font&gt;&lt;span style=&quot;background-color: transparent; white-space-collapse: preserve; font-family: Arial, sans-serif; color: light-dark(rgb(0, 0, 0), rgb(255, 255, 255));&quot;&gt;+Nivel&lt;/span&gt;&lt;/font&gt;&lt;/div&gt;" style="align=left;strokeColor=none;fillColor=none;spacingLeft=4;spacingRight=4;fontSize=12;verticalAlign=top;resizable=0;rotatable=0;part=1;html=1;whiteSpace=wrap;" vertex="1" parent="oUaAyh6fzebVkO_aCxSh-35">
          <mxGeometry y="50" width="160" height="230" as="geometry" />
        </mxCell>
        <mxCell id="oUaAyh6fzebVkO_aCxSh-40" style="edgeStyle=orthogonalEdgeStyle;rounded=0;orthogonalLoop=1;jettySize=auto;html=1;exitX=0.5;exitY=1;exitDx=0;exitDy=0;" edge="1" parent="oUaAyh6fzebVkO_aCxSh-35" source="oUaAyh6fzebVkO_aCxSh-36" target="oUaAyh6fzebVkO_aCxSh-36">
          <mxGeometry relative="1" as="geometry" />
        </mxCell>
        <mxCell id="oUaAyh6fzebVkO_aCxSh-41" style="edgeStyle=orthogonalEdgeStyle;rounded=0;orthogonalLoop=1;jettySize=auto;html=1;exitX=0.5;exitY=1;exitDx=0;exitDy=0;" edge="1" parent="oUaAyh6fzebVkO_aCxSh-35" source="oUaAyh6fzebVkO_aCxSh-36" target="oUaAyh6fzebVkO_aCxSh-36">
          <mxGeometry relative="1" as="geometry" />
        </mxCell>
        <mxCell id="oUaAyh6fzebVkO_aCxSh-38" value="" style="edgeStyle=entityRelationEdgeStyle;fontSize=12;html=1;endArrow=ERzeroToMany;startArrow=ERmandOne;rounded=0;exitX=1;exitY=0.25;exitDx=0;exitDy=0;entryX=0;entryY=0.25;entryDx=0;entryDy=0;" edge="1" parent="1" source="oUaAyh6fzebVkO_aCxSh-33" target="oUaAyh6fzebVkO_aCxSh-35">
          <mxGeometry width="100" height="100" relative="1" as="geometry">
            <mxPoint x="400" y="430" as="sourcePoint" />
            <mxPoint x="500" y="330" as="targetPoint" />
          </mxGeometry>
        </mxCell>
        <mxCell id="oUaAyh6fzebVkO_aCxSh-44" value="Progress" style="swimlane;childLayout=stackLayout;horizontal=1;startSize=50;horizontalStack=0;rounded=1;fontSize=14;fontStyle=0;strokeWidth=2;resizeParent=0;resizeLast=1;shadow=0;dashed=0;align=center;arcSize=4;whiteSpace=wrap;html=1;" vertex="1" parent="1">
          <mxGeometry x="210" y="270" width="160" height="120" as="geometry" />
        </mxCell>
        <mxCell id="oUaAyh6fzebVkO_aCxSh-45" value="&lt;b&gt;+ID&lt;/b&gt;&lt;br&gt;+Sesiones&lt;br&gt;+Peso levantado" style="align=left;strokeColor=none;fillColor=none;spacingLeft=4;spacingRight=4;fontSize=12;verticalAlign=top;resizable=0;rotatable=0;part=1;html=1;whiteSpace=wrap;" vertex="1" parent="oUaAyh6fzebVkO_aCxSh-44">
          <mxGeometry y="50" width="160" height="70" as="geometry" />
        </mxCell>
        <mxCell id="oUaAyh6fzebVkO_aCxSh-46" value="Foro" style="swimlane;childLayout=stackLayout;horizontal=1;startSize=50;horizontalStack=0;rounded=1;fontSize=14;fontStyle=0;strokeWidth=2;resizeParent=0;resizeLast=1;shadow=0;dashed=0;align=center;arcSize=4;whiteSpace=wrap;html=1;" vertex="1" parent="1">
          <mxGeometry x="680" y="475" width="160" height="150" as="geometry" />
        </mxCell>
        <mxCell id="oUaAyh6fzebVkO_aCxSh-47" value="&lt;div&gt;&lt;b&gt;+Nivel&lt;/b&gt;&lt;/div&gt;+Sugerencias&lt;br&gt;+Principiante&lt;br&gt;+Intermedio&lt;div&gt;+Avanzado&lt;/div&gt;&lt;div&gt;+Pro&lt;/div&gt;" style="align=left;strokeColor=none;fillColor=none;spacingLeft=4;spacingRight=4;fontSize=12;verticalAlign=top;resizable=0;rotatable=0;part=1;html=1;whiteSpace=wrap;" vertex="1" parent="oUaAyh6fzebVkO_aCxSh-46">
          <mxGeometry y="50" width="160" height="100" as="geometry" />
        </mxCell>
        <mxCell id="oUaAyh6fzebVkO_aCxSh-48" value="Shop" style="swimlane;childLayout=stackLayout;horizontal=1;startSize=50;horizontalStack=0;rounded=1;fontSize=14;fontStyle=0;strokeWidth=2;resizeParent=0;resizeLast=1;shadow=0;dashed=0;align=center;arcSize=4;whiteSpace=wrap;html=1;" vertex="1" parent="1">
          <mxGeometry x="710" y="280" width="160" height="120" as="geometry" />
        </mxCell>
        <mxCell id="oUaAyh6fzebVkO_aCxSh-49" value="&lt;div&gt;&lt;b&gt;+Monedas&lt;/b&gt;&lt;/div&gt;+Iconos&lt;br&gt;+Costo" style="align=left;strokeColor=none;fillColor=none;spacingLeft=4;spacingRight=4;fontSize=12;verticalAlign=top;resizable=0;rotatable=0;part=1;html=1;whiteSpace=wrap;" vertex="1" parent="oUaAyh6fzebVkO_aCxSh-48">
          <mxGeometry y="50" width="160" height="70" as="geometry" />
        </mxCell>
        <mxCell id="oUaAyh6fzebVkO_aCxSh-50" value="" style="edgeStyle=entityRelationEdgeStyle;fontSize=12;html=1;endArrow=ERmandOne;startArrow=ERmandOne;rounded=0;exitX=1;exitY=0.5;exitDx=0;exitDy=0;entryX=0.003;entryY=0.2;entryDx=0;entryDy=0;entryPerimeter=0;" edge="1" parent="1" source="oUaAyh6fzebVkO_aCxSh-45" target="oUaAyh6fzebVkO_aCxSh-36">
          <mxGeometry width="100" height="100" relative="1" as="geometry">
            <mxPoint x="380" y="330" as="sourcePoint" />
            <mxPoint x="480" y="230" as="targetPoint" />
          </mxGeometry>
        </mxCell>
        <mxCell id="oUaAyh6fzebVkO_aCxSh-51" value="Camino Fitness" style="swimlane;childLayout=stackLayout;horizontal=1;startSize=50;horizontalStack=0;rounded=1;fontSize=14;fontStyle=0;strokeWidth=2;resizeParent=0;resizeLast=1;shadow=0;dashed=0;align=center;arcSize=4;whiteSpace=wrap;html=1;" vertex="1" parent="1">
          <mxGeometry x="210" y="445" width="160" height="120" as="geometry" />
        </mxCell>
        <mxCell id="oUaAyh6fzebVkO_aCxSh-52" value="&lt;b&gt;+ID&lt;/b&gt;&lt;br&gt;+Sesion completada&lt;br&gt;+Peso&lt;div&gt;+Ejercicios&lt;/div&gt;" style="align=left;strokeColor=none;fillColor=none;spacingLeft=4;spacingRight=4;fontSize=12;verticalAlign=top;resizable=0;rotatable=0;part=1;html=1;whiteSpace=wrap;" vertex="1" parent="oUaAyh6fzebVkO_aCxSh-51">
          <mxGeometry y="50" width="160" height="70" as="geometry" />
        </mxCell>
        <mxCell id="oUaAyh6fzebVkO_aCxSh-56" value="" style="edgeStyle=entityRelationEdgeStyle;fontSize=12;html=1;endArrow=ERmandOne;startArrow=ERmandOne;rounded=0;entryX=0;entryY=0.5;entryDx=0;entryDy=0;exitX=1;exitY=0.25;exitDx=0;exitDy=0;" edge="1" parent="1" source="oUaAyh6fzebVkO_aCxSh-52" target="oUaAyh6fzebVkO_aCxSh-36">
          <mxGeometry width="100" height="100" relative="1" as="geometry">
            <mxPoint x="360" y="630" as="sourcePoint" />
            <mxPoint x="460" y="530" as="targetPoint" />
          </mxGeometry>
        </mxCell>
        <mxCell id="oUaAyh6fzebVkO_aCxSh-58" value="" style="edgeStyle=entityRelationEdgeStyle;fontSize=12;html=1;endArrow=ERzeroToMany;startArrow=ERmandOne;rounded=0;entryX=1;entryY=0.5;entryDx=0;entryDy=0;exitX=0;exitY=0.25;exitDx=0;exitDy=0;" edge="1" parent="1" source="oUaAyh6fzebVkO_aCxSh-49" target="oUaAyh6fzebVkO_aCxSh-36">
          <mxGeometry width="100" height="100" relative="1" as="geometry">
            <mxPoint x="710" y="210" as="sourcePoint" />
            <mxPoint x="810" y="110" as="targetPoint" />
          </mxGeometry>
        </mxCell>
        <mxCell id="oUaAyh6fzebVkO_aCxSh-59" value="" style="edgeStyle=entityRelationEdgeStyle;fontSize=12;html=1;endArrow=ERzeroToMany;startArrow=ERmandOne;rounded=0;entryX=1;entryY=0.75;entryDx=0;entryDy=0;exitX=0;exitY=0.25;exitDx=0;exitDy=0;" edge="1" parent="1" source="oUaAyh6fzebVkO_aCxSh-46" target="oUaAyh6fzebVkO_aCxSh-36">
          <mxGeometry width="100" height="100" relative="1" as="geometry">
            <mxPoint x="510" y="570" as="sourcePoint" />
            <mxPoint x="610" y="470" as="targetPoint" />
          </mxGeometry>
        </mxCell>
        <mxCell id="SsLR1r1AspN_L6EVD4On-16" value="Liga Fitness" style="swimlane;childLayout=stackLayout;horizontal=1;startSize=50;horizontalStack=0;rounded=1;fontSize=14;fontStyle=0;strokeWidth=2;resizeParent=0;resizeLast=1;shadow=0;dashed=0;align=center;arcSize=4;whiteSpace=wrap;html=1;" vertex="1" parent="1">
          <mxGeometry x="120" y="610" width="160" height="120" as="geometry" />
        </mxCell>
        <mxCell id="SsLR1r1AspN_L6EVD4On-17" value="+desafios semanales&lt;br&gt;+ranking&lt;br&gt;+Attribute3" style="align=left;strokeColor=none;fillColor=none;spacingLeft=4;spacingRight=4;fontSize=12;verticalAlign=top;resizable=0;rotatable=0;part=1;html=1;whiteSpace=wrap;" vertex="1" parent="SsLR1r1AspN_L6EVD4On-16">
          <mxGeometry y="50" width="160" height="70" as="geometry" />
        </mxCell>
        <mxCell id="SsLR1r1AspN_L6EVD4On-19" value="Skins" style="swimlane;childLayout=stackLayout;horizontal=1;startSize=50;horizontalStack=0;rounded=1;fontSize=14;fontStyle=0;strokeWidth=2;resizeParent=0;resizeLast=1;shadow=0;dashed=0;align=center;arcSize=4;whiteSpace=wrap;html=1;" vertex="1" parent="1">
          <mxGeometry x="610" y="500" width="160" height="120" as="geometry" />
        </mxCell>
        <mxCell id="SsLR1r1AspN_L6EVD4On-20" value="+Attribute1&#xa;+Attribute2&#xa;+Attribute3" style="align=left;strokeColor=none;fillColor=none;spacingLeft=4;spacingRight=4;fontSize=12;verticalAlign=top;resizable=0;rotatable=0;part=1;html=1;whiteSpace=wrap;" vertex="1" parent="SsLR1r1AspN_L6EVD4On-19">
          <mxGeometry y="50" width="160" height="70" as="geometry" />
        </mxCell>
        <mxCell id="SsLR1r1AspN_L6EVD4On-21" value="Monedas" style="swimlane;childLayout=stackLayout;horizontal=1;startSize=50;horizontalStack=0;rounded=1;fontSize=14;fontStyle=0;strokeWidth=2;resizeParent=0;resizeLast=1;shadow=0;dashed=0;align=center;arcSize=4;whiteSpace=wrap;html=1;" vertex="1" parent="1">
          <mxGeometry x="450" y="690" width="160" height="120" as="geometry" />
        </mxCell>
        <mxCell id="SsLR1r1AspN_L6EVD4On-22" value="+Attribute1&#xa;+Attribute2&#xa;+Attribute3" style="align=left;strokeColor=none;fillColor=none;spacingLeft=4;spacingRight=4;fontSize=12;verticalAlign=top;resizable=0;rotatable=0;part=1;html=1;whiteSpace=wrap;" vertex="1" parent="SsLR1r1AspN_L6EVD4On-21">
          <mxGeometry y="50" width="160" height="70" as="geometry" />
        </mxCell>
      </root>
    </mxGraphModel>
  </diagram>
</mxfile>
